PathFileType	4	(X/Y/Z)	/Users/itak/Documents/Research/Walk-IL/dataset/trc/00333_00011.trc
DataRate	CameraRate	NumFrames	NumMarkers	Units	OrigDataRate	OrigDataStartFrame	OrigNumFrames
100.000000	100.000000	4	54	mm	100.000000	253	506
Frame#	Time	RPSI			LPSI			L3			STRN			T10			C7			CLAV			RBAK			LBAK			LSHO			LUPA			LAEL			LAOL			LWTS			LWPS			LFRA			LIFD			LHPS			LHTS			RSHO			RUPA			RAEL			RAOL			RWTS			RWPS			RFRA			RIFD			RHTS			RHPS			RBHD			LFHD			RFHD			LBHD			LHIP			RHIP			RASI			LASI			LKNE			LTHI			LANK			LTIP			LTOE			LMT5			LHEE			RKNE			RTHI			RANK			RTIP			RTOE			RMT1			RMT5			RHEE			LMT1			*53			
		X1	Y1	Z1	X2	Y2	Z2	X3	Y3	Z3	X4	Y4	Z4	X5	Y5	Z5	X6	Y6	Z6	X7	Y7	Z7	X8	Y8	Z8	X9	Y9	Z9	X10	Y10	Z10	X11	Y11	Z11	X12	Y12	Z12	X13	Y13	Z13	X14	Y14	Z14	X15	Y15	Z15	X16	Y16	Z16	X17	Y17	Z17	X18	Y18	Z18	X19	Y19	Z19	X20	Y20	Z20	X21	Y21	Z21	X22	Y22	Z22	X23	Y23	Z23	X24	Y24	Z24	X25	Y25	Z25	X26	Y26	Z26	X27	Y27	Z27	X28	Y28	Z28	X29	Y29	Z29	X30	Y30	Z30	X31	Y31	Z31	X32	Y32	Z32	X33	Y33	Z33	X34	Y34	Z34	X35	Y35	Z35	X36	Y36	Z36	X37	Y37	Z37	X38	Y38	Z38	X39	Y39	Z39	X40	Y40	Z40	X41	Y41	Z41	X42	Y42	Z42	X43	Y43	Z43	X44	Y44	Z44	X45	Y45	Z45	X46	Y46	Z46	X47	Y47	Z47	X48	Y48	Z48	X49	Y49	Z49	X50	Y50	Z50	X51	Y51	Z51	X52	Y52	Z52	X53	Y53	Z53	X54	Y54	Z54	

254	2.53	299.1056213378906	962.6677856445312	205.3856658935547	293.4415588378906	966.9256591796875	75.46829986572266	290.7897644042969	1034.752563476562	138.4866333007812	533.33056640625	1210.145751953125	115.8245468139648	291.8587646484375	1151.9453125	125.0926361083984	337.7889404296875	1399.029052734375	105.2366714477539	491.9666748046875	1335.775024414062	110.7883758544922	285.965576171875	1263.46728515625	175.7346038818359	327.0434265136719	1361.700317382812	4.217491626739502	413.8975524902344	1376.467651367188	-51.24162673950195	392.0173645019531	1261.007080078125	-122.5477447509766	397.8443908691406	1058.611450195312	-147.6166076660156	333.0982971191406	1046.216674804688	-93.35105895996094	473.9916076660156	806.3662719726562	-120.0765151977539	436.0156555175781	803.2608032226562	-177.6849060058594	405.6597900390625	954.3770141601562	-162.6359100341797	464.7762145996094	645.8973388671875	-129.5236206054688	427.2368469238281	733.0625610351562	-178.0376281738281	480.7201843261719	729.5375366210938	-142.8228454589844	396.1686401367188	1385.349853515625	267.0209350585938	383.5362548828125	1323.256469726562	333.6582336425781	381.8487243652344	1058.274047851562	381.5054321289062	338.7088623046875	1046.97607421875	297.8596496582031	489.0983276367188	828.6087036132812	335.409423828125	464.147705078125	817.5739135742188	406.5266723632812	407.7825927734375	990.5237426757812	393.1654052734375	508.6985473632812	655.3618774414062	357.589599609375	519.484375	727.6607055664062	351.5016174316406	477.8139953613281	732.6825561523438	406.0933532714844	384.7156677246094	1601.310180664062	186.0114288330078	557.5601806640625	1608.449951171875	69.84237670898438	546.0204467773438	1610.168334960938	170.3101043701172	373.29443359375	1594.483154296875	41.87247848510742	375.2553405761719	911.890625	-33.43032073974609	388.0653381347656	913.38232421875	308.6890869140625	488.7477722167969	945.7260131835938	258.8822631835938	497.5472412109375	939.0169677734375	19.19521141052246	486.1338806152344	453.1172180175781	5.488103866577148	463.5958557128906	594.7374267578125	-18.9863109588623	380.4652099609375	40.89800643920898	69.75882720947266	433.5641479492188	236.6851806640625	26.50094985961914	589.0927124023438	41.3198127746582	121.1490097045898	506.6358337402344	43.46327972412109	50.57981491088867	347.5368041992188	45.72354888916016	138.9862976074219	547.3048706054688	476.4478454589844	305.2249755859375	509.8338928222656	724.6555786132812	317.8271484375	253.1894226074219	166.2783050537109	298.6175231933594	490.7872924804688	371.251220703125	300.7624816894531	411.5790710449219	59.53506469726562	252.0233306884766	363.6655578613281	82.68642425537109	208.0159454345703	324.0076599121094	94.92020416259766	318.582763671875	215.7577972412109	198.8817901611328	249.1632232666016	521.4112548828125	32.89706802368164	163.4951019287109	nan	nan	nan	
255	2.54	293.8479309082031	962.6287841796875	206.0044403076172	287.0711364746094	967.0386352539062	75.97454071044922	284.6230773925781	1034.315063476562	138.8953399658203	526.3191528320312	1210.248046875	115.5300827026367	285.2055053710938	1151.68994140625	125.7580642700195	330.4852905273438	1398.8935546875	105.5302200317383	484.7812805175781	1335.823608398438	110.5364379882812	279.2963256835938	1263.159790039062	176.4221954345703	319.4569702148438	1361.453002929688	4.600942611694336	406.0729064941406	1376.2138671875	-51.2471809387207	383.7882690429688	1260.812377929688	-122.4595031738281	388.2318115234375	1058.470336914062	-147.8010101318359	323.7919006347656	1046.41943359375	-93.05675506591797	461.3699035644531	805.094482421875	-121.9358291625977	422.923583984375	802.9228515625	-179.3033294677734	394.8398132324219	954.3482055664062	-163.2102508544922	449.318603515625	644.7724609375	-132.2725524902344	412.9971923828125	732.8751220703125	-180.0247039794922	466.5900268554688	728.208984375	-145.1865081787109	389.5059204101562	1385.386962890625	267.079345703125	377.4733581542969	1323.355834960938	333.8993225097656	377.9463500976562	1058.58642578125	382.7113037109375	333.8082275390625	1046.707885742188	299.5717163085938	485.4414672851562	829.27001953125	335.5699462890625	462.1722717285156	818.6670532226562	407.2105712890625	404.2655639648438	991.0091552734375	394.1744384765625	505.8448181152344	656.2216186523438	357.7554016113281	516.7372436523438	728.5025024414062	351.520751953125	476.5482177734375	733.8601684570312	407.3229064941406	377.4193115234375	1601.29248046875	186.0054016113281	550.029296875	1608.558959960938	69.49156951904297	538.72607421875	1610.303100585938	169.9662475585938	365.7477722167969	1594.404418945312	41.89926910400391	368.5155944824219	912.2258911132812	-33.26768112182617	382.3974609375	912.817626953125	308.9742126464844	483.0147094726562	945.0209350585938	258.9830932617188	490.9544677734375	939.3265991210938	19.23279762268066	481.6076049804688	453.7177429199219	4.710731506347656	458.2044067382812	595.263427734375	-19.78646850585938	380.2809448242188	40.4772834777832	69.27814483642578	431.0687255859375	236.9569244384766	25.76541709899902	588.9495239257812	41.69242477416992	120.9822082519531	506.4767456054688	43.34671020507812	50.27467727661133	347.454345703125	45.5604248046875	138.5696563720703	530.2748413085938	472.6578674316406	305.1813049316406	500.3177185058594	721.7046508789062	316.8934631347656	228.3415069580078	169.6236572265625	297.3650512695312	471.05810546875	368.9886169433594	300.4698486328125	383.2319641113281	59.29954147338867	248.2236022949219	335.9120788574219	84.49342346191406	204.8620300292969	296.9195251464844	95.76164245605469	315.8936462402344	191.8648071289062	204.0849456787109	248.5005798339844	521.2156982421875	33.36030578613281	163.2919616699219	nan	nan	nan	
256	2.55	288.48583984375	962.4898681640625	206.6403045654297	280.62890625	967.0279541015625	76.50669860839844	278.4740905761719	1033.707763671875	139.3615417480469	519.23583984375	1210.253295898438	115.2447891235352	278.4414672851562	1151.329833984375	126.5147247314453	323.085693359375	1398.640869140625	105.9119720458984	477.5003662109375	1335.767700195312	110.3145370483398	272.5686340332031	1262.735229492188	177.2083587646484	311.7319030761719	1361.107177734375	5.085672855377197	398.0859069824219	1375.8564453125	-51.1915283203125	375.3920288085938	1260.491455078125	-122.2777938842773	378.571044921875	1058.208984375	-147.8873138427734	314.4761962890625	1046.456665039062	-92.62080383300781	448.8953857421875	803.8193969726562	-123.6900863647461	409.9565734863281	802.5538940429688	-180.7821350097656	384.0396728515625	954.2232666015625	-163.6664123535156	434.1066589355469	643.6495361328125	-134.8477630615234	398.9357604980469	732.6685180664062	-181.8457489013672	452.6294250488281	726.8803100585938	-147.4095458984375	382.8249816894531	1385.300170898438	267.2137756347656	371.4090576171875	1323.327758789062	334.192626953125	374.0968627929688	1058.788208007812	383.9464416503906	328.9289245605469	1046.3291015625	301.3376159667969	481.7764587402344	829.7906494140625	335.865966796875	460.0307312011719	819.5863037109375	407.9716796875	400.773193359375	991.3782348632812	395.2013854980469	502.9295654296875	656.9315795898438	358.0822143554688	513.9214477539062	729.2005615234375	351.7194519042969	475.0603942871094	734.86181640625	408.5793151855469	370.0806579589844	1601.174926757812	186.0567932128906	542.443359375	1608.53564453125	69.17809295654297	531.3869018554688	1610.3076171875	169.6651916503906	358.1363525390625	1594.230712890625	41.98004913330078	361.7619323730469	912.4605712890625	-33.06546020507812	376.5936889648438	912.1458740234375	309.2809143066406	477.1860656738281	944.2017211914062	259.1119689941406	484.3206481933594	939.5819091796875	19.32546043395996	477.2341613769531	454.2682800292969	4.064953327178955	452.9190063476562	595.7022094726562	-20.43840408325195	380.11328125	40.09320068359375	68.84680938720703	428.6954040527344	237.1996154785156	25.13023567199707	588.8062744140625	42.01903915405273	120.870002746582	506.3198547363281	43.25727081298828	50.02708053588867	347.3956604003906	45.39907455444336	138.1906890869141	512.9474487304688	469.0268249511719	305.0848693847656	490.5453186035156	718.8014526367188	315.90625	204.0011749267578	172.582763671875	295.9750366210938	451.2859191894531	366.7814636230469	300.1524963378906	355.3685913085938	59.06074905395508	243.9865570068359	308.665283203125	86.30705261230469	201.3938293457031	270.3189086914062	96.28629302978516	312.9034423828125	168.5080871582031	208.9103088378906	247.8031005859375	521.0181884765625	33.72184371948242	163.1743316650391	nan	nan	nan	
257	2.56	282.9651184082031	962.2872314453125	207.2804107666016	274.1048278808594	966.9151611328125	77.06140899658203	272.3422241210938	1032.957763671875	139.9103240966797	512.0758056640625	1210.174560546875	114.9688186645508	271.5684204101562	1150.879760742188	127.3625259399414	315.58984375	1398.286743164062	106.3842086791992	470.1231384277344	1335.620361328125	110.1229858398438	265.7777099609375	1262.212036132812	178.0932464599609	303.8721618652344	1360.6845703125	5.672957420349121	389.9344482421875	1375.4169921875	-51.06906890869141	366.8176879882812	1260.069091796875	-122.0000610351562	368.8555908203125	1057.8525390625	-147.8658905029297	305.1553649902344	1046.34765625	-92.03427124023438	436.5841064453125	802.5593872070312	-125.3306579589844	397.1293640136719	802.1702270507812	-182.1112365722656	373.2600402832031	954.0219116210938	-163.9965515136719	419.1647644042969	642.52734375	-137.2242889404297	385.0780029296875	732.4531860351562	-183.4887847900391	438.86572265625	725.5668334960938	-149.4796295166016	376.1225280761719	1385.10791015625	267.4224243164062	365.3389282226562	1323.189819335938	334.5390625	370.2620239257812	1058.890380859375	385.1980895996094	324.06005859375	1045.862548828125	303.1331787109375	478.1352844238281	830.2010498046875	336.3367614746094	457.6670532226562	820.3256225585938	408.8243713378906	397.2692260742188	991.6393432617188	396.2457885742188	499.9946899414062	657.5302124023438	358.6030578613281	511.070068359375	729.7974243164062	352.1499938964844	473.2917785644531	735.6828002929688	409.8511962890625	362.6997680664062	1600.970092773438	186.1693420410156	534.8026123046875	1608.394165039062	68.90646362304688	523.9982299804688	1610.1943359375	169.4116973876953	350.4586181640625	1593.975708007812	42.11735153198242	354.9626770019531	912.6044921875	-32.82848358154297	370.6232604980469	911.40234375	309.6164245605469	471.2328491210938	943.2816772460938	259.2752685546875	477.6279907226562	939.7777709960938	19.48103141784668	472.9970703125	454.7717895507812	3.556037187576294	447.7246398925781	596.060302734375	-20.94213485717773	379.9602355957031	39.74740982055664	68.46976470947266	426.4342346191406	237.4176483154297	24.60038757324219	588.6646118164062	42.29447174072266	120.8075256347656	506.1692199707031	43.19180297851562	49.83571624755859	347.3562927246094	45.23855209350586	137.8503112792969	495.3840637207031	465.5989074707031	304.9110717773438	480.5086975097656	715.9878540039062	314.907470703125	180.2157440185547	175.1332855224609	294.4521484375	431.5367736816406	364.6454162597656	299.78466796875	328.0825500488281	58.80740356445312	239.3690795898438	282.0114440917969	88.07894134521484	197.6548919677734	244.2868041992188	96.49549865722656	309.6420593261719	145.7175140380859	213.3110656738281	247.0674133300781	520.8255615234375	33.98047256469727	163.1323852539062	nan	nan	nan	
